<?xml version="1.0" encoding="UTF-8" standalone="no"?>
<!-- Created with Inkscape (http://www.inkscape.org/) -->

<svg
   xmlns:dc="http://purl.org/dc/elements/1.1/"
   xmlns:cc="http://creativecommons.org/ns#"
   xmlns:rdf="http://www.w3.org/1999/02/22-rdf-syntax-ns#"
   xmlns:svg="http://www.w3.org/2000/svg"
   xmlns="http://www.w3.org/2000/svg"
   xmlns:sodipodi="http://sodipodi.sourceforge.net/DTD/sodipodi-0.dtd"
   xmlns:inkscape="http://www.inkscape.org/namespaces/inkscape"
   width="744.09448819"
   height="1052.3622047"
   id="svg2"
   version="1.1"
   inkscape:version="0.48.1 r9760"
   sodipodi:docname="New document 1">
  <defs
     id="defs4" />
  <sodipodi:namedview
     id="base"
     pagecolor="#ffffff"
     bordercolor="#666666"
     borderopacity="1.0"
     inkscape:pageopacity="0.0"
     inkscape:pageshadow="2"
     inkscape:zoom="4"
     inkscape:cx="188.5723"
     inkscape:cy="716.02832"
     inkscape:document-units="px"
     inkscape:current-layer="layer1"
     showgrid="false"
     inkscape:window-width="1920"
     inkscape:window-height="1005"
     inkscape:window-x="0"
     inkscape:window-y="25"
     inkscape:window-maximized="1" />
  <metadata
     id="metadata7">
    <rdf:RDF>
      <cc:Work
         rdf:about="">
        <dc:format>image/svg+xml</dc:format>
        <dc:type
           rdf:resource="http://purl.org/dc/dcmitype/StillImage" />
        <dc:title></dc:title>
      </cc:Work>
    </rdf:RDF>
  </metadata>
  <g
     inkscape:label="Layer 1"
     inkscape:groupmode="layer"
     id="layer1">
    <g
       style="font-size:22px;font-style:normal;font-variant:normal;font-weight:normal;font-stretch:normal;text-align:start;line-height:125%;letter-spacing:0px;word-spacing:0px;text-anchor:start;fill:#000000;fill-opacity:1;stroke:none;font-family:Verdana;-inkscape-font-specification:Verdana"
       id="text2993"
       transform="translate(34.75,-17.25)">
      <path
         d="m 148.9907,337.31808 -3.35694,-8.1875 -38.32281,0 0,4.51172 6.9502,0 0,1.89063 -6.9502,0 0,7.70215 -2.12695,0 0,-15.99512 41.92539,0 3.49049,9.125"
         id="path3770"
         inkscape:connector-curvature="0"
         sodipodi:nodetypes="cccccccccccc"
         style="fill:#000000" />
      <path
         d="m 119.69669,343.23508 -2.01953,0 0,-11.99903 2.01953,0 0,11.99903"
         id="path3772"
         inkscape:connector-curvature="0"
         sodipodi:nodetypes="ccccc"
         style="fill:#000000" />
      <path
         d="m 129.94474,343.12766 c -0.37956,0.10026 -0.79493,0.18261 -1.24609,0.24707 -0.44402,0.0645 -0.84148,0.0967 -1.19239,0.0967 -1.22461,-10e-6 -2.1556,-0.32943 -2.79297,-0.98829 -0.63737,-0.65885 -0.95605,-1.71516 -0.95605,-3.16894 l 0,-6.38086 -1.36426,0 0,-1.69727 1.36426,0 0,-3.44824 2.01953,0 0,3.44824 4.16797,0 0,1.69727 -4.16797,0 0,5.46777 c 0,0.63022 0.0143,1.12436 0.043,1.48242 0.0286,0.35092 0.1289,0.68035 0.30078,0.98829 0.15755,0.28646 0.37239,0.49772 0.64453,0.63378 0.27929,0.12891 0.70182,0.19337 1.26758,0.19336 0.32942,10e-6 0.67317,-0.0465 1.03125,-0.13964 0.35807,-0.10026 0.61588,-0.18262 0.77344,-0.24707 l 0.10742,0 0,1.81543"
         id="path3774"
         inkscape:connector-curvature="0"
         style="fill:#000000" />
      <path
         d="m 142.12638,341.87082 c -1e-5,2.03385 -0.46192,3.52702 -1.38574,4.47949 -0.92384,0.95247 -2.34539,1.42871 -4.26465,1.42871 -0.63737,0 -1.26042,-0.0466 -1.86914,-0.13965 -0.60157,-0.0859 -1.19597,-0.21126 -1.7832,-0.37597 l 0,-2.0625 0.10742,0 c 0.32942,0.1289 0.85221,0.28645 1.56836,0.47265 0.71614,0.19336 1.43228,0.29004 2.14844,0.29004 0.68749,0 1.25682,-0.0824 1.708,-0.24707 0.45117,-0.16471 0.80208,-0.39388 1.05274,-0.6875 0.25064,-0.2793 0.42968,-0.61588 0.53711,-1.00976 0.10741,-0.39388 0.16112,-0.83431 0.16113,-1.32129 l 0,-1.09571 c -0.60873,0.48698 -1.19239,0.85222 -1.75098,1.09571 -0.55144,0.23633 -1.25684,0.35449 -2.11621,0.35449 -1.43229,0 -2.57096,-0.51562 -3.41601,-1.54688 -0.8379,-1.0384 -1.25684,-2.49934 -1.25684,-4.38281 0,-1.03124 0.14323,-1.91926 0.42969,-2.66406 0.29362,-0.75194 0.69108,-1.40006 1.19238,-1.94434 0.46549,-0.50845 1.03125,-0.90233 1.69727,-1.18164 0.66601,-0.28644 1.32844,-0.42967 1.9873,-0.42968 0.69466,10e-6 1.27473,0.0716 1.74024,0.21484 0.47264,0.13608 0.97036,0.34734 1.49316,0.63379 l 0.12891,-0.51563 1.89062,0 0,10.63477 m -2.01953,-1.93359 0,-6.542 c -0.53712,-0.24348 -1.03842,-0.41535 -1.50391,-0.51562 -0.45834,-0.10741 -0.91667,-0.16112 -1.375,-0.16113 -1.11003,10e-6 -1.98373,0.3724 -2.62109,1.11718 -0.63737,0.7448 -0.95606,1.82618 -0.95606,3.24414 0,1.34636 0.23633,2.36687 0.70899,3.06153 0.47265,0.69466 1.25683,1.04199 2.35254,1.04199 0.58723,0 1.17447,-0.111 1.76172,-0.33301 0.59439,-0.22916 1.13866,-0.53352 1.63281,-0.91308"
         id="path3776"
         inkscape:connector-curvature="0"
         style="fill:#000000" />
      <path
         d="m 155.41728,331.23605 -7.0039,16.42481 -2.15918,0 2.23437,-5.00586 -4.78027,-11.41895 2.19141,0 3.68457,8.89453 3.71679,-8.89453 2.11621,0"
         id="path3778"
         inkscape:connector-curvature="0"
         sodipodi:nodetypes="ccccccccc"
         style="fill:#000000" />
    </g>
    <rect
       style="fill:#ff0000;fill-opacity:1;stroke:none"
       id="rect3853"
       width="2.0212133"
       height="1.8857397"
       x="152.4257"
       y="309.99194"
       rx="0.93913502"
       ry="0" />
  </g>
</svg>
